<?xml version="1.0" encoding="utf-8"?>
<!-- Generator: Adobe Illustrator 16.0.0, SVG Export Plug-In . SVG Version: 6.00 Build 0)  -->
<!DOCTYPE svg PUBLIC "-//W3C//DTD SVG 1.1 Tiny//EN" "http://www.w3.org/Graphics/SVG/1.1/DTD/svg11-tiny.dtd">
<svg version="1.1" baseProfile="tiny" id="Layer_2" xmlns="http://www.w3.org/2000/svg" xmlns:xlink="http://www.w3.org/1999/xlink"
	 x="0px" y="0px" width="56px" height="56px" viewBox="0 0 56 56" xml:space="preserve">
<g>
	<path fill="#9D2F22" d="M27.5,5.327C15.073,5.327,5,14.832,5,26.554c0,6.111,2.734,11.617,7.117,15.492
		C16.14,45.603,27.5,55,27.5,55s11.354-9.394,15.377-12.949C47.263,38.177,50,32.667,50,26.554C50,14.832,39.927,5.327,27.5,5.327z
		 M27.5,43.778c-10.084,0-18.254-7.711-18.254-17.224c0-9.513,8.17-17.221,18.254-17.221s18.254,7.708,18.254,17.221
		C45.754,36.066,37.584,43.778,27.5,43.778z"/>
	<ellipse fill="#DAD7CC" fill-opacity="0.6" cx="27.5" cy="26.555" rx="18.254" ry="17.222"/>
</g>
</svg>
