<?xml version="1.0" encoding="utf-8"?>
<!-- Generator: Adobe Illustrator 16.0.0, SVG Export Plug-In . SVG Version: 6.00 Build 0)  -->
<!DOCTYPE svg PUBLIC "-//W3C//DTD SVG 1.1 Tiny//EN" "http://www.w3.org/Graphics/SVG/1.1/DTD/svg11-tiny.dtd">
<svg version="1.1" baseProfile="tiny" id="Layer_2" xmlns="http://www.w3.org/2000/svg" xmlns:xlink="http://www.w3.org/1999/xlink"
	 x="0px" y="0px" width="53px" height="53px" viewBox="0 0 53 53" xml:space="preserve">
<g>
	<path fill="#9D2F22" d="M26,3.94c-12.008,0-21.742,9.185-21.742,20.513c0,5.904,2.643,11.226,6.877,14.97
		C15.023,42.86,26,51.94,26,51.94s10.971-9.078,14.859-12.513c4.238-3.743,6.883-9.068,6.883-14.975
		C47.742,13.125,38.008,3.94,26,3.94z M26,41.096c-9.744,0-17.639-7.452-17.639-16.643c0-9.192,7.895-16.642,17.639-16.642
		s17.639,7.449,17.639,16.642C43.639,33.645,35.744,41.096,26,41.096z"/>
	<ellipse fill="#DAD7CC" fill-opacity="0.6" cx="26" cy="24.454" rx="17.639" ry="16.642"/>
</g>
</svg>
