<?xml version="1.0" encoding="utf-8"?>
<!-- Generator: Adobe Illustrator 16.0.0, SVG Export Plug-In . SVG Version: 6.00 Build 0)  -->
<!DOCTYPE svg PUBLIC "-//W3C//DTD SVG 1.1 Tiny//EN" "http://www.w3.org/Graphics/SVG/1.1/DTD/svg11-tiny.dtd">
<svg version="1.1" baseProfile="tiny" id="Layer_2" xmlns="http://www.w3.org/2000/svg" xmlns:xlink="http://www.w3.org/1999/xlink"
	 x="0px" y="0px" width="63px" height="63px" viewBox="0 0 63 63" xml:space="preserve">
<g>
	<path fill="#9D2F22" d="M31,4.599c-14.362,0-26,10.985-26,24.529c0,7.064,3.158,13.425,8.225,17.902C17.873,51.14,31,62,31,62
		s13.121-10.857,17.77-14.962C53.835,42.559,57,36.194,57,29.128C57,15.584,45.362,4.599,31,4.599z M31,49.031
		c-11.653,0-21.094-8.911-21.094-19.903C9.906,18.135,19.347,9.23,31,9.23s21.094,8.905,21.094,19.897
		C52.094,40.12,42.653,49.031,31,49.031z"/>
	<path fill="#DAD7CC" fill-opacity="0.6" d="M31,9.23c-11.653,0-21.094,8.905-21.094,19.897c0,10.992,9.441,19.903,21.094,19.903
		s21.094-8.911,21.094-19.903C52.094,18.135,42.653,9.23,31,9.23z"/>
</g>
</svg>
